#!OML:ASF F:\VICON\USERDATA\INSTALL\Justin_Nancy\Justin_Nancy.ASF
:FULLY-SPECIFIED
:DEGREES
98
root 1.82239 17.1705 0.129958 8.56891 -48.4275 1.00913
lowerback 10.8853 1.14515 4.36597
upperback -0.820346 2.25659 2.67069
thorax -6.92987 0.980129 -0.0150706
lowerneck -18.6553 -5.20928 -11.0449
upperneck 14.7041 -5.4192 6.86502
head 8.11487 -2.53122 3.41634
rclavicle 5.24792e-014 -4.77083e-015
rhumerus -39.7845 14.4824 -93.2799
rradius 105.647
rwrist -14.7938
rhand -12.2543 21.1833
rfingers 7.12502
rthumb 13.8119 -8.33816
lclavicle 5.24792e-014 -4.77083e-015
lhumerus -54.7816 -10.2591 100.548
lradius 104.449
lwrist 23.7923
lhand -17.0562 7.46805
lfingers 7.12502
lthumb 9.18107 37.2482
rfemur -7.25593 6.51857 29.7309
rtibia 36.5511
rfoot -15.888 -11.7976
rtoes -14.9721
lfemur -34.6697 5.9664 -11.7922
ltibia 71.2263
lfoot -6.96468 -1.4515
ltoes -18.6729
99
root 1.59238 17.2753 0.409628 8.72364 -48.2624 0.957721
lowerback 10.762 0.959612 4.38644
upperback -1.0358 2.0299 2.89055
thorax -7.10493 0.867668 0.244572
lowerneck -18.0563 -4.92659 -11.6552
upperneck 14.5332 -4.97754 7.09755
head 7.93589 -2.3444 3.65859
rclavicle -2.10712e-014 -4.77083e-015
rhumerus -39.8086 16.0599 -93.464
rradius 106.395
rwrist -14.3529
rhand -12.3897 21.7625
rfingers 7.12502
rthumb 13.6815 -7.76784
lclavicle -2.10712e-014 -4.77083e-015
lhumerus -55.7362 -8.48384 100.399
lradius 104.625
lwrist 23.7627
lhand -16.2928 7.74447
lfingers 7.12502
lthumb 9.91772 37.4908
rfemur -5.58266 6.79843 29.3936
rtibia 35.5195
rfoot -15.09 -9.36301
rtoes -7.59146
lfemur -35.4715 5.78825 -12.2598
ltibia 68.6691
lfoot -7.56185 -0.832396
ltoes -19.4333
100
root 1.34606 17.391 0.693352 8.14985 -48.1006 1.90901
lowerback 10.4889 0.953747 3.737
upperback -1.15799 1.92618 2.82646
thorax -7.09938 0.842391 0.561967
lowerneck -17.8972 -4.8803 -12.1705
upperneck 14.5753 -4.85955 7.41063
head 7.93288 -2.29148 3.86666
rclavicle -5.92378e-014 0
rhumerus -39.6729 16.9876 -93.5196
rradius 107.036
rwrist -13.8135
rhand -12.5454 22.2692
rfingers 7.12502
rthumb 13.5313 -7.27113
lclavicle -5.92378e-014 0
lhumerus -56.5736 -7.34033 100.13
lradius 104.616
lwrist 23.497
lhand -16.1968 8.31237
lfingers 7.12502
lthumb 10.0103 38.0543
rfemur -4.42909 6.56423 28.4521
rtibia 34.8071
rfoot -12.7597 -8.11922
rtoes -7.28551
lfemur -35.9441 5.49802 -13.4736
ltibia 65.6715
lfoot -8.01898 -0.127557
ltoes -18.8686
101
root 1.10951 17.4959 0.981134 7.89974 -47.588 2.40344
lowerback 10.3496 1.09767 3.47855
upperback -1.23388 2.08009 2.7949
thorax -7.10581 0.927478 0.650793
lowerneck -18.2046 -5.17096 -12.2863
upperneck 14.8773 -5.18617 7.33616
head 8.12255 -2.45789 3.81631
rclavicle -3.73715e-014 -4.77083e-015
rhumerus -39.6358 17.1618 -93.0988
rradius 107.845
rwrist -12.9535
rhand -12.7661 22.368
rfingers 7.12502
rthumb 13.3186 -7.18635
lclavicle -3.73715e-014 -4.77083e-015
lhumerus -57.347 -7.03694 100.304
lradius 104.437
lwrist 22.9032
lhand -17.2634 9.01124
lfingers 7.12502
lthumb 8.98115 38.8001
rfemur -3.35562 5.98033 27.8006
rtibia 34.3163
rfoot -10.0226 -7.2444
rtoes -7.41091
lfemur -36.4353 5.09099 -14.2916
ltibia 62.4517
lfoot -8.0195 0.133307
ltoes -17.8845
102
root 0.881694 17.5798 1.26672 8.01469 -47.0662 2.34409
lowerback 10.5315 1.29383 3.41126
upperback -1.4227 2.3611 2.92084
thorax -7.41726 1.06447 0.771287
lowerneck -18.4393 -5.45668 -11.9685
upperneck 15.0832 -5.54749 6.84943
head 8.24605 -2.65588 3.54726
rclavicle 9.54166e-015 -5.24792e-014
rhumerus -39.9605 17.1983 -92.4327
rradius 108.882
rwrist -12.4489
rhand -12.5721 22.2314
rfingers 7.12502
rthumb 13.5057 -7.31069
lclavicle 9.54166e-015 -5.24792e-014
lhumerus -58.175 -6.89659 100.615
lradius 104.144
lwrist 22.4216
lhand -17.1173 7.97244
lfingers 7.12502
lthumb 9.12218 37.7552
rfemur -2.16861 5.40827 27.551
rtibia 33.4391
rfoot -6.68674 -6.29337
rtoes -7.99281
lfemur -36.8389 4.63414 -14.6948
ltibia 59.3807
lfoot -8.10478 0.254957
ltoes -20.0926
103
root 0.641405 17.6531 1.57285 7.76492 -46.8582 2.72976
lowerback 10.2622 1.47893 3.33776
upperback -1.43072 2.57528 2.77493
thorax -7.26532 1.17195 0.629487
lowerneck -18.75 -5.6902 -11.6543
upperneck 15.2343 -5.87692 6.62726
head 8.36635 -2.81053 3.37154
rclavicle 2.50469e-014 -4.13472e-014
rhumerus -39.9529 17.1706 -92.1612
rradius 109.552
rwrist -11.9327
rhand -12.4129 22.6392
rfingers 7.12502
rthumb 13.659 -6.89262
lclavicle 2.50469e-014 -4.13472e-014
lhumerus -58.6476 -6.794 100.476
lradius 103.737
lwrist 22.1956
lhand -16.728 6.67729
lfingers 7.12502
lthumb 9.49781 36.4433
rfemur -0.793699 4.93003 26.8527
rtibia 32.2642
rfoot -3.55375 -4.60477
rtoes -7.63842
lfemur -36.7239 4.19008 -15.5662
ltibia 56.4756
lfoot -8.53841 1.04706
ltoes -22.7919
104
root 0.368631 17.7976 1.89651 7.54866 -46.7151 3.00074
lowerback 9.57977 1.52966 3.57946
upperback -1.2899 2.61469 2.56404
thorax -6.7034 1.18783 0.285761
lowerneck -18.7434 -5.75302 -11.5654
upperneck 15.1286 -5.99324 6.67472
head 8.33932 -2.85411 3.35691
rclavicle 1.38553e-013 -1.59028e-014
rhumerus -39.6637 17.388 -92.1297
rradius 109.846
rwrist -11.4448
rhand -12.3423 22.8815
rfingers 7.12502
rthumb 13.7271 -6.64575
lclavicle 1.38553e-013 -1.59028e-014
lhumerus -58.9312 -6.48953 100.099
lradius 103.331
lwrist 22.3771
lhand -16.7545 6.37149
lfingers 7.12502
lthumb 9.47225 36.1386
rfemur 0.969446 4.8131 26.2609
rtibia 30.6566
rfoot -0.229811 -3.34952
rtoes -7.36401
lfemur -36.552 4.84206 -16.9717
ltibia 54.1126
lfoot -9.41416 2.07086
ltoes -30.1848
105
root 0.107688 17.9215 2.19242 7.71245 -46.4956 2.88303
lowerback 9.22119 1.51719 3.806
upperback -1.3457 2.60575 2.55478
thorax -6.54824 1.1772 0.160465
lowerneck -18.2415 -5.74449 -11.7315
upperneck 14.7637 -6.0075 6.79724
head 8.14098 -2.86412 3.42894
rclavicle 1.86858e-014 1.27222e-014
rhumerus -39.7557 17.8245 -92.1407
rradius 110.227
rwrist -10.9274
rhand -11.8452 22.6547
rfingers 7.12502
rthumb 14.2061 -6.83955
lclavicle 1.86858e-014 1.27222e-014
lhumerus -59.4525 -6.02203 99.8463
lradius 102.909
lwrist 22.7245
lhand -16.6866 6.34762
lfingers 7.12502
lthumb 9.53772 36.1118
rfemur 2.50727 5.10065 26.1216
rtibia 28.954
rfoot 3.66634 -3.11194
rtoes -5.82222
lfemur -36.7333 5.11143 -17.7419
ltibia 51.5356
lfoot -9.89382 2.10227
ltoes -33.6473
106
root -0.148901 18.0283 2.47213 7.84316 -46.4143 2.81923
lowerback 9.14257 1.6235 3.74013
upperback -1.48278 2.74314 2.56395
thorax -6.64945 1.2448 0.187937
lowerneck -18.0145 -5.83 -11.8141
upperneck 14.7152 -6.15129 6.909
head 8.10639 -2.93003 3.46391
rclavicle 7.95139e-015 -1.11319e-014
rhumerus -39.9544 18.0341 -92.0431
rradius 110.694
rwrist -10.5285
rhand -11.2058 22.1583
rfingers 7.12502
rthumb 14.8222 -7.29163
lclavicle 7.95139e-015 -1.11319e-014
lhumerus -60.0271 -5.65373 99.5031
lradius 102.588
lwrist 22.7183
lhand -15.7763 6.26808
lfingers 7.12502
lthumb 10.4159 35.9901
rfemur 3.82346 5.58638 26.0579
rtibia 27.36
rfoot 7.38307 -2.95191
rtoes -4.74285
lfemur -36.9761 4.78489 -18.1178
ltibia 48.6878
lfoot -9.58876 1.93034
ltoes -34.515
